<svg width="228" height="32" viewBox="0 0 228 32" fill="none" xmlns="http://www.w3.org/2000/svg">
<path d="M149.007 25.1621C149.909 25.1621 150.704 25.4942 151.393 26.1581C152.089 26.8222 152.442 27.622 152.45 28.5566C152.442 29.196 152.274 29.778 151.946 30.3027C151.627 30.8192 151.208 31.2333 150.691 31.5449C150.175 31.8481 149.613 31.9999 149.007 31.9999C148.056 31.9999 147.24 31.6679 146.56 31.0039C145.887 30.3316 145.555 29.5158 145.563 28.5566C145.555 27.622 145.887 26.8222 146.56 26.1581C147.24 25.4942 148.056 25.1621 149.007 25.1621ZM110.884 12.4706C113.614 12.4707 115.766 13.0366 117.34 14.1679C118.922 15.2993 119.754 16.8657 119.836 18.8662H113.589C113.556 18.481 113.421 18.1487 113.184 17.8701C112.946 17.5913 112.638 17.378 112.261 17.2304C111.892 17.0747 111.482 16.997 111.031 16.997C110.449 16.997 109.949 17.1033 109.531 17.3164C109.113 17.5295 108.908 17.833 108.916 18.2265C108.908 18.5052 109.027 18.7632 109.272 19.0009C109.527 19.2387 110.015 19.4235 110.736 19.5546L114.573 20.2431C116.508 20.5957 117.947 21.1901 118.89 22.0263C119.841 22.8544 120.32 23.9656 120.328 25.3593C120.32 26.7038 119.918 27.8722 119.123 28.8642C118.336 29.848 117.258 30.6102 115.889 31.1513C114.528 31.6842 112.974 31.9511 111.228 31.9511C108.342 31.9511 106.084 31.3601 104.452 30.1796C102.829 28.9991 101.923 27.4416 101.734 25.5068H108.474C108.564 26.1052 108.858 26.5685 109.358 26.8964C109.867 27.2162 110.507 27.3759 111.277 27.3759C111.9 27.3759 112.413 27.2697 112.814 27.0566C113.224 26.8435 113.433 26.5399 113.441 26.1464C113.433 25.7857 113.253 25.4983 112.9 25.2851C112.556 25.072 112.015 24.8997 111.277 24.7685L107.932 24.1787C106.005 23.8425 104.563 23.2025 103.604 22.2597C102.644 21.3169 102.169 20.1039 102.177 18.6201C102.169 17.3083 102.513 16.1971 103.21 15.2871C103.915 14.3689 104.919 13.6717 106.223 13.1962C107.534 12.7125 109.088 12.4706 110.884 12.4706ZM165.24 12.4706C167.093 12.4707 168.696 12.8072 170.049 13.4794C171.41 14.1435 172.463 15.0862 173.209 16.3076C173.955 17.521 174.333 18.9481 174.341 20.5878H168.044C167.954 19.5958 167.666 18.8417 167.183 18.3251C166.707 17.8006 166.093 17.5381 165.339 17.538C164.749 17.538 164.232 17.7103 163.789 18.0546C163.346 18.3908 163.002 18.9031 162.756 19.5917C162.51 20.2722 162.387 21.1292 162.387 22.1621C162.387 23.1948 162.51 24.0555 162.756 24.7441C163.002 25.4246 163.346 25.9369 163.789 26.2812C164.232 26.6173 164.749 26.7861 165.339 26.7861C165.839 26.786 166.282 26.6708 166.667 26.4414C167.052 26.2036 167.364 25.859 167.602 25.4081C167.847 24.9492 167.995 24.3918 168.044 23.7363H174.341C174.316 25.4003 173.934 26.851 173.196 28.0888C172.458 29.3186 171.413 30.27 170.061 30.9423C168.716 31.6145 167.109 31.9511 165.24 31.9511C163.191 31.9511 161.436 31.545 159.977 30.7333C158.517 29.9135 157.398 28.7737 156.619 27.3144C155.84 25.8469 155.451 24.1457 155.451 22.2109C155.451 20.2762 155.84 18.5793 156.619 17.1201C157.398 15.6526 158.517 14.5128 159.977 13.7011C161.436 12.8813 163.191 12.4706 165.24 12.4706ZM186.241 12.4706C188.291 12.4706 190.046 12.8813 191.505 13.7011C192.964 14.5128 194.083 15.6525 194.862 17.1201C195.641 18.5793 196.031 20.2762 196.031 22.2109C196.031 24.1457 195.641 25.8469 194.862 27.3144C194.083 28.7737 192.964 29.9135 191.505 30.7333C190.046 31.5449 188.291 31.9511 186.241 31.9511C184.192 31.9511 182.438 31.5448 180.979 30.7333C179.519 29.9135 178.4 28.7737 177.621 27.3144C176.842 25.8469 176.452 24.1457 176.452 22.2109C176.452 20.2762 176.842 18.5793 177.621 17.1201C178.4 15.6525 179.519 14.5128 180.979 13.7011C182.438 12.8814 184.192 12.4707 186.241 12.4706ZM90.6201 12.4706C91.9726 12.4707 93.1859 12.6305 94.2598 12.9501C95.3337 13.2617 96.2477 13.7009 97.002 14.2665C97.7562 14.824 98.3301 15.4801 98.7236 16.2343C99.1253 16.9803 99.3261 17.7917 99.3262 18.6689V31.6064H92.9814V28.9501H92.833C92.4559 29.655 91.997 30.2247 91.4561 30.6591C90.9232 31.0936 90.3126 31.4096 89.624 31.6064C88.9435 31.8032 88.1929 31.9013 87.373 31.9013C86.168 31.9013 85.1022 31.705 84.1758 31.3115C83.2576 30.9098 82.5364 30.3027 82.0117 29.4912C81.4871 28.6796 81.2247 27.6467 81.2246 26.3925C81.2246 25.3595 81.4004 24.4777 81.7529 23.748C82.1054 23.0102 82.5973 22.4077 83.2285 21.9404C83.8597 21.4731 84.5935 21.116 85.4297 20.8701C86.2741 20.6241 87.1845 20.4644 88.1602 20.3906C89.2178 20.3086 90.0666 20.2104 90.7061 20.0956C91.3533 19.9727 91.8205 19.8047 92.1074 19.5917C92.3943 19.3705 92.538 19.0793 92.5381 18.7187V18.6689C92.538 18.1772 92.3496 17.8003 91.9727 17.538C91.5955 17.2757 91.1117 17.1445 90.5215 17.1445C89.8738 17.1445 89.3445 17.2872 88.9346 17.5742C88.5329 17.8529 88.291 18.2841 88.209 18.8662H81.9619C82.0439 17.7184 82.409 16.6607 83.0566 15.6933C83.7125 14.7177 84.6675 13.9385 85.9219 13.3564C87.1763 12.7661 88.7426 12.4706 90.6201 12.4706ZM14.7578 19.6035H14.9541V6.42085H21.792V31.6064H16.0859L6.98535 18.374H6.83789V31.6064H0V6.42085H5.80469L14.7578 19.6035ZM34.25 6.07612C36.2666 6.07617 38.0127 6.40017 39.4883 7.0478C40.9722 7.68729 42.1165 8.58868 42.9199 9.75288C43.7316 10.9171 44.1367 12.2827 44.1367 13.8486C44.1367 14.8159 43.9359 15.7791 43.5342 16.7382C43.1325 17.6893 42.4113 18.7434 41.3701 19.8994C40.3289 21.0553 38.849 22.4326 36.9307 24.0312L34.5693 25.999V26.1464H44.4072V31.6064H25.0752V26.6874L34.4707 18.915C35.0938 18.3985 35.6266 17.9147 36.0693 17.4638C36.5202 17.0047 36.8648 16.5334 37.1025 16.0498C37.3485 15.566 37.4717 15.0287 37.4717 14.4384C37.4716 13.7908 37.3324 13.2373 37.0537 12.7783C36.7832 12.3191 36.4056 11.9666 35.9219 11.7206C35.4383 11.4666 34.881 11.3399 34.25 11.3398C33.6188 11.3398 33.0608 11.4666 32.5771 11.7206C32.1016 11.9748 31.7321 12.3479 31.4697 12.8398C31.2074 13.3317 31.0771 13.9307 31.0771 14.6357H24.583C24.583 12.8648 24.9811 11.3395 25.7764 10.0605C26.5716 8.78169 27.6946 7.79797 29.1455 7.10932C30.5967 6.42064 32.2987 6.07612 34.25 6.07612ZM87.0879 1.85737C86.7849 2.21353 85.861 3.32662 83.3301 6.41987C76.8364 14.3564 74.5684 31.6064 74.5684 31.6064H68.0254L63.7461 17.5371H63.5488L59.2695 31.6064H52.7266L45.2988 6.41987H52.9238L56.3672 21.916H56.5635L60.6465 6.41987H66.6484L70.7314 21.9648H70.9277C70.9277 21.9648 72.5513 12.1537 77.5 7.20502C80.1015 4.60371 86.592 2.05014 87.0879 1.85737ZM129.472 16.3076H129.669C130.095 15.1027 130.804 14.1643 131.796 13.4921C132.788 12.8117 133.981 12.4706 135.375 12.4706C136.711 12.4707 137.872 12.7742 138.855 13.3808C139.847 13.9874 140.613 14.824 141.154 15.8896C141.704 16.9554 141.975 18.1773 141.967 19.5546V31.6064H135.178V20.9814C135.186 20.0468 134.952 19.3131 134.477 18.7802C134.009 18.2474 133.342 17.9805 132.473 17.9804C131.923 17.9804 131.44 18.1036 131.021 18.3496C130.612 18.5873 130.292 18.9318 130.062 19.3828C129.841 19.8255 129.726 20.3584 129.718 20.9814V31.6064H122.93V6.42085H129.472V16.3076ZM221.905 12.4706C223.717 12.4706 225.184 13.0535 226.308 14.2177C227.439 15.3819 228.005 16.9313 228.005 18.8662V31.6064H221.217V20.5878C221.217 19.7598 221.008 19.1118 220.59 18.6445C220.172 18.1691 219.61 17.9317 218.905 17.9316C218.208 17.9316 217.654 18.169 217.244 18.6445C216.843 19.1118 216.642 19.7599 216.642 20.5878V31.6064H210.148V20.5878C210.148 19.7598 209.94 19.1118 209.521 18.6445C209.103 18.169 208.542 17.9316 207.837 17.9316C207.37 17.9316 206.968 18.0379 206.632 18.2509C206.296 18.4641 206.033 18.772 205.845 19.1738C205.664 19.5673 205.574 20.0387 205.574 20.5878V31.6064H198.785V12.7167H205.229V16.3076H205.427C205.82 15.1272 206.492 14.1924 207.443 13.5039C208.394 12.8153 209.526 12.4706 210.838 12.4706C212.166 12.4707 213.309 12.8233 214.269 13.5283C215.228 14.2251 215.806 15.1517 216.003 16.3076H216.199C216.519 15.1518 217.199 14.2251 218.24 13.5283C219.281 12.8232 220.503 12.4707 221.905 12.4706ZM92.5879 23.3427C92.4076 23.4165 92.2147 23.4861 92.0098 23.5517C91.813 23.6173 91.5997 23.6789 91.3701 23.7363C91.1488 23.7937 90.9104 23.8463 90.6562 23.8955C90.4104 23.9446 90.1523 23.9902 89.8818 24.0312C89.3573 24.1132 88.9269 24.248 88.5908 24.4365C88.2629 24.6168 88.0165 24.8427 87.8525 25.1132C87.6968 25.3755 87.6191 25.6711 87.6191 25.999C87.6192 26.5235 87.804 26.9254 88.1729 27.204C88.5417 27.4826 89.0132 27.622 89.5869 27.622C90.1034 27.622 90.5872 27.5158 91.0381 27.3027C91.4972 27.0895 91.8703 26.7816 92.1572 26.3798C92.4441 25.9781 92.5879 25.4898 92.5879 24.916V23.3427ZM186.291 17.3906C185.685 17.3906 185.164 17.5827 184.729 17.9677C184.295 18.353 183.963 18.9029 183.733 19.6162C183.504 20.3212 183.389 21.17 183.389 22.1621C183.389 23.1456 183.504 23.9938 183.733 24.707C183.963 25.4203 184.295 25.9701 184.729 26.3554C185.164 26.7406 185.684 26.9335 186.291 26.9335C186.865 26.9335 187.361 26.7407 187.779 26.3554C188.197 25.9701 188.52 25.4202 188.75 24.707C188.979 23.9938 189.095 23.1456 189.095 22.1621C189.095 21.17 188.98 20.3212 188.75 19.6162C188.52 18.9029 188.197 18.353 187.779 17.9677C187.361 17.5824 186.865 17.3906 186.291 17.3906ZM95.7598 0.914986C100.821 -0.710101 105.539 -0.112777 106.297 2.24897C107.055 4.61069 105.375 8.53795 100.314 10.163C95.2536 11.788 91.8072 7.64398 83.4746 10.9248C83.3096 10.9822 90.7023 2.53938 95.7598 0.914986ZM103.389 4.48042C102.952 3.7767 101.456 3.91492 100.049 4.78901C98.6417 5.66305 97.8544 6.94168 98.291 7.64545C98.7283 8.34877 100.224 8.2107 101.631 7.33686C103.038 6.46301 103.825 5.18432 103.389 4.48042ZM87.0879 1.85737C87.365 1.53164 87.1232 1.83924 87.1182 1.84565C87.1182 1.84565 87.1077 1.84965 87.0879 1.85737Z" fill="#0050E0"/>
</svg>
