<svg width="228" height="32" viewBox="0 0 228 32" fill="none" xmlns="http://www.w3.org/2000/svg">
<path d="M149.007 25.1629C149.909 25.1629 150.704 25.4949 151.393 26.159C152.089 26.823 152.442 27.622 152.45 28.5565C152.442 29.196 152.274 29.7789 151.946 30.3036C151.627 30.82 151.208 31.2333 150.691 31.5448C150.175 31.8481 149.614 31.9998 149.007 31.9998C148.056 31.9998 147.24 31.6678 146.56 31.0038C145.887 30.3315 145.555 29.5156 145.563 28.5565C145.555 27.6221 145.887 26.823 146.56 26.159C147.24 25.495 148.056 25.1629 149.007 25.1629ZM110.884 12.4715C113.614 12.4716 115.766 13.0374 117.34 14.1688C118.922 15.3002 119.754 16.8657 119.836 18.8661H113.589C113.556 18.4808 113.421 18.1487 113.184 17.87C112.946 17.5912 112.638 17.3779 112.261 17.2303C111.892 17.0746 111.482 16.9969 111.031 16.9969C110.449 16.9969 109.949 17.1033 109.531 17.3163C109.113 17.5294 108.908 17.833 108.916 18.2264C108.908 18.5052 109.027 18.764 109.272 19.0018C109.527 19.2395 110.015 19.4234 110.736 19.5545L114.573 20.244C116.508 20.5965 117.947 21.191 118.89 22.0272C119.84 22.8552 120.32 23.9657 120.328 25.3592C120.32 26.7037 119.918 27.8721 119.123 28.8641C118.336 29.8479 117.258 30.6111 115.889 31.1522C114.528 31.685 112.974 31.951 111.228 31.951C108.342 31.951 106.084 31.3609 104.452 30.1805C102.829 28.9999 101.923 27.4415 101.734 25.5067H108.474C108.564 26.1051 108.858 26.5684 109.358 26.8963C109.867 27.2161 110.507 27.3758 111.277 27.3758C111.9 27.3758 112.413 27.2696 112.814 27.0565C113.224 26.8433 113.433 26.5398 113.441 26.1463C113.433 25.7857 113.253 25.4991 112.9 25.286C112.556 25.0728 112.015 24.9005 111.277 24.7694L107.932 24.1786C106.005 23.8424 104.563 23.2032 103.604 22.2606C102.644 21.3178 102.169 20.1039 102.177 18.62C102.169 17.3084 102.513 16.1979 103.21 15.2879C103.915 14.3697 104.919 13.6726 106.223 13.1971C107.534 12.7134 109.088 12.4715 110.884 12.4715ZM165.24 12.4715C167.093 12.4716 168.696 12.8071 170.049 13.4793C171.41 14.1434 172.463 15.0869 173.209 16.3084C173.955 17.5218 174.333 18.9481 174.341 20.5877H168.044C167.954 19.5958 167.666 18.8415 167.183 18.325C166.707 17.8006 166.093 17.538 165.339 17.5379C164.749 17.5379 164.232 17.7102 163.789 18.0545C163.346 18.3907 163.002 18.903 162.756 19.5916C162.51 20.2721 162.387 21.129 162.387 22.162C162.387 23.195 162.51 24.0563 162.756 24.745C163.002 25.4253 163.346 25.9378 163.789 26.2821C164.232 26.6181 164.749 26.786 165.339 26.786C165.839 26.7859 166.282 26.6707 166.667 26.4413C167.052 26.2035 167.364 25.8597 167.602 25.409C167.848 24.9499 167.995 24.392 168.044 23.7362H174.341C174.316 25.4005 173.934 26.8517 173.196 28.0897C172.458 29.3193 171.413 30.27 170.061 30.9422C168.716 31.6145 167.109 31.951 165.24 31.951C163.191 31.951 161.436 31.5449 159.977 30.7332C158.517 29.9135 157.398 28.7744 156.619 27.3153C155.84 25.8477 155.451 24.1456 155.451 22.2108C155.451 20.2761 155.84 18.5792 156.619 17.12C157.398 15.6524 158.517 14.5127 159.977 13.701C161.436 12.8812 163.191 12.4715 165.24 12.4715ZM186.241 12.4715C188.291 12.4715 190.046 12.8812 191.505 13.701C192.964 14.5127 194.083 15.6524 194.862 17.12C195.641 18.5792 196.031 20.2761 196.031 22.2108C196.031 24.1456 195.641 25.8477 194.862 27.3153C194.083 28.7744 192.964 29.9135 191.505 30.7332C190.046 31.5449 188.291 31.951 186.241 31.951C184.192 31.951 182.438 31.5448 180.979 30.7332C179.519 29.9135 178.4 28.7744 177.621 27.3153C176.842 25.8477 176.452 24.1456 176.452 22.2108C176.452 20.2761 176.842 18.5792 177.621 17.12C178.4 15.6524 179.519 14.5127 180.979 13.701C182.438 12.8813 184.192 12.4716 186.241 12.4715ZM90.6201 12.4715C91.9727 12.4716 93.1859 12.6313 94.2598 12.951C95.3336 13.2625 96.2478 13.7009 97.002 14.2664C97.7561 14.8239 98.3301 15.4801 98.7236 16.2342C99.1254 16.9803 99.3262 17.7925 99.3262 18.6698V31.6063H92.9814V28.95H92.833C92.4559 29.6551 91.9972 30.2255 91.4561 30.66C90.9233 31.0944 90.3125 31.4095 89.624 31.6063C88.9435 31.8031 88.1929 31.9022 87.373 31.9022C86.1679 31.9022 85.1022 31.7049 84.1758 31.3114C83.2576 30.9096 82.5364 30.3027 82.0117 29.4911C81.4871 28.6794 81.2246 27.6467 81.2246 26.3924C81.2246 25.3596 81.4005 24.4785 81.7529 23.7489C82.1055 23.011 82.5972 22.4076 83.2285 21.9403C83.8597 21.473 84.5936 21.1169 85.4297 20.8709C86.2741 20.625 87.1846 20.4652 88.1602 20.3914C89.2178 20.3095 90.0666 20.2103 90.7061 20.0956C91.3535 19.9726 91.8205 19.8047 92.1074 19.5916C92.3944 19.3703 92.5381 19.0793 92.5381 18.7186V18.6698C92.5381 18.1779 92.3498 17.8003 91.9727 17.5379C91.5955 17.2756 91.1117 17.1444 90.5215 17.1444C89.8738 17.1444 89.3445 17.2881 88.9346 17.575C88.5331 17.8538 88.291 18.2842 88.209 18.8661H81.9619C82.0439 17.7183 82.409 16.6606 83.0566 15.6932C83.7125 14.7176 84.6675 13.9384 85.9219 13.3563C87.1762 12.766 88.7427 12.4715 90.6201 12.4715ZM14.7578 19.6043H14.9541V6.42075H21.792V31.6063H16.0859L6.98535 18.3739H6.83789V31.6063H0V6.42075H5.80469L14.7578 19.6043ZM34.25 6.07602C36.2666 6.07607 38.0127 6.40012 39.4883 7.0477C40.9722 7.68719 42.1165 8.58956 42.9199 9.75375C43.7314 10.9178 44.1367 12.2828 44.1367 13.8485C44.1367 14.8159 43.9359 15.7799 43.5342 16.7391C43.1324 17.69 42.4111 18.7435 41.3701 19.8993C40.3289 21.0552 38.849 22.4325 36.9307 24.0311L34.5693 25.9989V26.1463H44.4072V31.6063H25.0752V26.6873L34.4707 18.9149C35.0936 18.3986 35.6267 17.9155 36.0693 17.4647C36.5203 17.0056 36.8648 16.5334 37.1025 16.0497C37.3484 15.5661 37.4716 15.0294 37.4717 14.4393C37.4717 13.7918 37.3323 13.2382 37.0537 12.7791C36.7832 12.32 36.4056 11.9675 35.9219 11.7215C35.4383 11.4674 34.8811 11.3398 34.25 11.3397C33.6187 11.3397 33.0609 11.4674 32.5771 11.7215C32.1017 11.9757 31.7321 12.3488 31.4697 12.8407C31.2076 13.3325 31.0772 13.9308 31.0771 14.6356H24.583C24.583 12.8649 24.9812 11.3403 25.7764 10.0614C26.5716 8.78247 27.6945 7.7979 29.1455 7.10922C30.5967 6.42054 32.2987 6.07602 34.25 6.07602ZM87.0889 1.85629C86.787 2.21108 85.8641 3.32369 83.3301 6.42075C76.8515 14.3389 74.5789 31.5266 74.5684 31.6063H68.0254L63.7461 17.5379H63.5488L59.2695 31.6063H52.7266L45.2988 6.42075H52.9238L56.3672 21.9159H56.5635L60.6465 6.42075H66.6484L70.7314 21.9647H70.9277C70.9415 21.8996 73.2865 10.8071 76.8369 7.25668C79.4448 4.64891 86.5771 2.04126 87.0889 1.85629ZM129.472 16.3084H129.669C130.095 15.1033 130.804 14.1643 131.796 13.492C132.788 12.8116 133.981 12.4715 135.375 12.4715C136.711 12.4716 137.872 12.775 138.855 13.3817C139.847 13.9884 140.613 14.8248 141.154 15.8905C141.704 16.9562 141.975 18.1774 141.967 19.5545V31.6063H135.178V20.9813C135.186 20.0467 134.952 19.313 134.477 18.7801C134.009 18.2474 133.341 17.9804 132.473 17.9803C131.923 17.9803 131.44 18.1036 131.021 18.3495C130.612 18.5872 130.292 18.9318 130.062 19.3827C129.841 19.8254 129.726 20.3582 129.718 20.9813V31.6063H122.93V6.42075H129.472V16.3084ZM221.905 12.4715C223.717 12.4715 225.184 13.0536 226.308 14.2176C227.439 15.3818 228.005 16.9312 228.005 18.8661V31.6063H221.217V20.5877C221.217 19.7597 221.008 19.1117 220.59 18.6444C220.172 18.169 219.61 17.9316 218.905 17.9315C218.208 17.9315 217.654 18.1689 217.244 18.6444C216.842 19.1117 216.642 19.7597 216.642 20.5877V31.6063H210.148V20.5877C210.148 19.7597 209.94 19.1117 209.521 18.6444C209.103 18.1691 208.542 17.9315 207.837 17.9315C207.37 17.9315 206.968 18.0378 206.632 18.2508C206.296 18.464 206.033 18.772 205.845 19.1737C205.664 19.5672 205.574 20.0385 205.574 20.5877V31.6063H198.785V12.7176H205.229V16.3084H205.427C205.82 15.1279 206.492 14.1934 207.443 13.5047C208.394 12.8161 209.526 12.4715 210.838 12.4715C212.166 12.4716 213.309 12.8242 214.269 13.5291C215.228 14.226 215.806 15.1525 216.003 16.3084H216.199C216.519 15.1526 217.199 14.226 218.24 13.5291C219.281 12.8241 220.503 12.4716 221.905 12.4715ZM92.5879 23.3426C92.4076 23.4164 92.2146 23.486 92.0098 23.5516C91.813 23.6172 91.5996 23.6788 91.3701 23.7362C91.1488 23.7936 90.9104 23.8471 90.6562 23.8963C90.4104 23.9455 90.1522 23.9901 89.8818 24.0311C89.3572 24.1131 88.9269 24.2488 88.5908 24.4373C88.2629 24.6177 88.0165 24.8426 87.8525 25.1131C87.6968 25.3755 87.6191 25.6709 87.6191 25.9989C87.6191 26.5236 87.8039 26.9252 88.1729 27.2039C88.5418 27.4826 89.0131 27.6219 89.5869 27.6219C90.1034 27.6219 90.5872 27.5157 91.0381 27.3026C91.4972 27.0894 91.8703 26.7814 92.1572 26.3797C92.444 25.9781 92.5879 25.4905 92.5879 24.9168V23.3426ZM186.291 17.3905C185.684 17.3905 185.164 17.5834 184.729 17.9686C184.295 18.3539 183.963 18.903 183.733 19.6161C183.504 20.3211 183.389 21.1699 183.389 22.162C183.389 23.1458 183.504 23.9946 183.733 24.7079C183.963 25.421 184.295 25.97 184.729 26.3553C185.164 26.7406 185.684 26.9334 186.291 26.9334C186.865 26.9334 187.361 26.7406 187.779 26.3553C188.197 25.9701 188.521 25.4208 188.75 24.7079C188.98 23.9946 189.095 23.1458 189.095 22.162C189.095 21.1699 188.98 20.3211 188.75 19.6161C188.521 18.9031 188.197 18.3538 187.779 17.9686C187.361 17.5833 186.865 17.3905 186.291 17.3905ZM95.7607 0.914886C100.821 -0.710024 105.539 -0.112808 106.297 2.24887C107.055 4.61055 105.375 8.53777 100.314 10.1629C95.2536 11.788 91.8073 7.64385 83.4746 10.9247C83.3073 10.9847 90.7025 2.53912 95.7607 0.914886ZM87.0889 1.85629C87.3619 1.53548 87.1272 1.83404 87.1182 1.84555C87.1182 1.84555 87.108 1.84936 87.0889 1.85629Z" fill="#0050E0"/>
</svg>
